<svg xmlns="http://www.w3.org/2000/svg" viewBox="0 0 100 100" width="256" height="256">
  <rect width="100" height="100" fill="none"/>
  <path d="M15,50 C15,75 35,85 50,85 C65,85 85,75 85,50 Z" fill="#4caf50"/>
  <path d="M20,50 C20,70 35,78 50,78 C65,78 80,70 80,50 Z" fill="#ffffff"/>
  <path d="M25,50 C25,65 38,72 50,72 C62,72 75,65 75,50 Z" fill="#e91e63"/>
  <circle cx="35" cy="55" r="2" fill="#000000"/>
  <circle cx="50" cy="62" r="2" fill="#000000"/>
  <circle cx="65" cy="55" r="2" fill="#000000"/>
  <circle cx="42" cy="58" r="2" fill="#000000"/>
  <circle cx="58" cy="58" r="2" fill="#000000"/>
</svg>
